<svg xmlns="http://www.w3.org/2000/svg" fill="none" viewBox="0 0 64 65"><path fill="#001752" d="M40.246 33.918c-.003.001-.003.004 0 .008.073.118.134.231.244.431.486.885.983 2.205 1.064 3.658l.047.83.336.246c.688.503 1.6.874 2.602 1.059.231.042.839.075 1.399.075 1.129 0 1.996-.148 2.603-.428.79-.365 1.081-.807 1.085-1.478.005-.838-.33-1.254-1.444-1.793-.709-.343-1.344-.443-3.846-1.178-1.928-.566-1.934-.566-3.16-1.053-.315-.125-.89-.395-.93-.377ZM18.03 24.012c-1.129 0-1.996.148-2.604.428-.79.365-1.08.807-1.084 1.478-.005.838.33 1.254 1.444 1.793.709.343 1.344.443 3.846 1.178 1.928.566 1.933.566 3.16 1.053.335.133.969.431.93.37-.073-.12-.134-.232-.244-.432-.486-.884-.983-2.205-1.064-3.658l-.047-.83-.336-.246c-.688-.503-1.6-.874-2.603-1.059-.23-.042-.838-.075-1.398-.075ZM45.044 46.113l-.574-.066a13.696 13.696 0 0 1-1.276-.156 14.465 14.465 0 0 1-1.244-.266c-.089-.026-.179-.052-.26-.078a74.65 74.65 0 0 1-1.114-.37c-.291-.1-.517-.184-.72-.271-.189-.09-.39-.197-.633-.333a62.966 62.966 0 0 1-.879-.503c-.016-.01-.034-.019-.049-.03l-.25.19a7.06 7.06 0 0 1-.918.594 8.588 8.588 0 0 1-.966.456c-.243.098-.487.185-.727.262a11.868 11.868 0 0 1-1.217.32 13.534 13.534 0 0 1-2.26.278 12.791 12.791 0 0 1-1.484-.138 13.651 13.651 0 0 1-1.283-.257 11.868 11.868 0 0 1-.709-.203 10.594 10.594 0 0 1-1.213-.474 8.588 8.588 0 0 1-.948-.523 7.06 7.06 0 0 1-.45-.315l-.25-.19-.05.03c-.352.205-.636.368-.878.503-.243.136-.444.242-.633.333-.204.087-.429.17-.72.271-.29.1-.647.217-1.114.37-.082.026-.171.052-.26.078a14.771 14.771 0 0 1-1.88.358c-.212.027-.426.048-.64.064l-.528.072c.435.41.888.8 1.36 1.169a19.245 19.245 0 0 0 9.607 3.871c.674.074 1.352.112 2.03.114h.044l.098-.001c.653-.003 1.305-.04 1.955-.11l.172-.021c.497-.063.99-.145 1.481-.247.114-.023.226-.044.34-.07a19.296 19.296 0 0 0 2.195-.64 20.95 20.95 0 0 0 2.276-.959 22.942 22.942 0 0 0 1.55-.834c.14-.082.28-.171.42-.257a19.22 19.22 0 0 0 1.233-.846c.474-.37.93-.762 1.366-1.175ZM32.045 12.818H31.903a19.25 19.25 0 0 0-1.957.11 19.228 19.228 0 0 0-10.936 4.964l-.058.06.447.033a13.692 13.692 0 0 1 1.276.155 14.622 14.622 0 0 1 1.244.266c.089.026.178.052.26.079.467.152.824.269 1.114.37.291.1.516.183.72.27.189.091.39.198.632.333.243.135.527.299.88.503.021.014.054.033.05.03l.248-.19a7.091 7.091 0 0 1 .919-.593 8.622 8.622 0 0 1 .965-.457 11.868 11.868 0 0 1 2.107-.616 13.795 13.795 0 0 1 1.588-.218 9.29 9.29 0 0 1 .51-.026 12.427 12.427 0 0 1 .948.068 13.782 13.782 0 0 1 1.819.327c.23.059.468.126.709.203a10.594 10.594 0 0 1 1.213.474 8.593 8.593 0 0 1 .948.523c.154.099.304.204.45.316l.25.19c.015-.012.033-.021.05-.03.352-.205.636-.369.878-.504.243-.135.444-.242.633-.332.204-.088.429-.172.72-.272.29-.1.647-.217 1.114-.37.081-.026.171-.052.26-.078a14.73 14.73 0 0 1 1.88-.358c.212-.026.426-.047.64-.063l.585-.073-.026-.027a19.233 19.233 0 0 0-10.969-4.962 19.265 19.265 0 0 0-1.969-.105ZM49.781 24.781c-.014-.02-.027-.044-.042-.059a1.413 1.413 0 0 0-.207-.08c-.078-.026-.176-.052-.321-.092-.43-.119-.807-.235-1.2-.331a7.404 7.404 0 0 0-1.3-.205 11.688 11.688 0 0 0-.813-.027c-.288 0-.57.012-.839.034-.269.022-.527.054-.768.096a5.863 5.863 0 0 0-.672.157c-.205.062-.39.133-.55.213a2.33 2.33 0 0 0-.286.169 1.781 1.781 0 0 0-.445.424 1.598 1.598 0 0 0-.28.624 2.106 2.106 0 0 0-.002.833 1.627 1.627 0 0 0 .33.722c.087.109.192.215.317.322.125.106.271.211.44.317.169.105.361.21.579.317.217.107.46.215.731.325.272.11.57.222.9.337.33.115.69.233 1.082.355.392.122.817.248 1.278.38.248.07.51.142.775.218.266.077.536.158.8.247.264.088.522.185.764.291.12.054.237.11.349.168.111.06.217.121.317.186.183.12.199.144.464.335a19.194 19.194 0 0 0-.343-2.763 19.22 19.22 0 0 0-1.058-3.513ZM14.233 39.362c.062.029.117.051.19.074.078.025.176.051.32.091.43.119.807.236 1.201.331a7.408 7.408 0 0 0 1.3.205c.366.025.728.033 1.076.024.35-.009.685-.034 1-.075.157-.02.308-.045.454-.073.146-.028.285-.06.417-.095s.256-.074.372-.116c.116-.043.224-.088.322-.138.102-.05.198-.107.286-.169a1.78 1.78 0 0 0 .445-.424c.06-.08.11-.163.154-.25.056-.114.098-.24.126-.374a2.112 2.112 0 0 0 .002-.833 1.632 1.632 0 0 0-.33-.722 2.28 2.28 0 0 0-.317-.321 3.733 3.733 0 0 0-.44-.317 6.489 6.489 0 0 0-.578-.318c-.218-.107-.461-.215-.732-.325-.271-.11-.57-.222-.9-.337-.329-.115-.689-.233-1.081-.355a55.237 55.237 0 0 0-1.279-.38c-.247-.07-.509-.142-.775-.218a19.417 19.417 0 0 1-.8-.247 9.001 9.001 0 0 1-.763-.29 5.458 5.458 0 0 1-.35-.17 3.91 3.91 0 0 1-.317-.185c-.164-.108-.222-.159-.418-.302.016.578.057 1.155.124 1.73.13.906.325 1.802.583 2.68.203.645.44 1.28.708 1.9Z"/></svg>